<?xml version="1.0" standalone="no"?>
<!DOCTYPE svg PUBLIC "-//W3C//DTD SVG 20010904//EN"
 "http://www.w3.org/TR/2001/REC-SVG-20010904/DTD/svg10.dtd">
<svg version="1.0" xmlns="http://www.w3.org/2000/svg"
 width="155.000000pt" height="155.000000pt" viewBox="0 0 155.000000 155.000000"
 preserveAspectRatio="xMidYMid meet">
<metadata>
Created by potrace 1.11, written by Peter Selinger 2001-2013
</metadata>
<g transform="translate(0.000000,155.000000) scale(0.100000,-0.100000)"
fill="#000000" stroke="none">
<path d="M333 1403 c-44 -15 -61 -40 -20 -29 12 3 33 9 45 12 24 7 24 7 -7
-53 -16 -34 -28 -63 -25 -66 9 -8 124 34 124 45 0 6 -10 8 -22 4 -77 -21 -73
-25 -39 43 31 61 31 61 9 60 -13 0 -42 -7 -65 -16z"/>
<path d="M221 1286 c-19 -7 -37 -18 -39 -26 -3 -8 1 -11 9 -8 8 3 24 9 37 12
l23 8 -26 -53 -27 -52 29 6 c48 10 84 27 78 37 -4 6 -15 6 -31 0 -36 -14 -36
-14 -14 30 32 63 27 70 -39 46z"/>
<path d="M1108 1219 c-29 -16 -61 -97 -41 -100 33 -6 75 -10 115 -12 57 -2 71
-15 102 -91 18 -45 22 -65 15 -88 -10 -35 8 -78 43 -102 12 -9 19 -18 15 -22
-3 -4 -20 7 -36 24 -17 16 -32 27 -35 25 -2 -3 -11 9 -20 25 -14 28 -55 50
-83 46 -7 -1 -20 -2 -29 -3 -11 -1 -14 -7 -9 -23 5 -19 2 -17 -20 10 -37 44
-75 62 -135 62 -28 0 -60 4 -70 10 -45 24 -176 12 -215 -20 -12 -10 -24 -9
-62 3 -113 35 -166 30 -233 -23 -20 -15 -50 -31 -68 -35 -40 -8 -86 -46 -101
-82 -6 -16 -25 -36 -42 -45 -17 -10 -36 -34 -45 -55 -8 -21 -21 -51 -29 -68
-61 -129 -77 -179 -62 -199 7 -8 70 -53 141 -100 124 -82 130 -88 133 -124 7
-72 68 -127 142 -126 89 1 147 66 139 156 -11 108 -136 163 -226 99 l-29 -20
-51 45 c-81 71 -82 78 -26 130 53 50 66 53 86 22 68 -104 214 -169 281 -126
19 13 25 13 42 2 37 -24 104 -26 150 -4 86 42 200 198 207 283 3 32 -1 31 80
11 133 -35 315 -9 354 51 14 22 14 29 0 72 -40 120 -198 338 -268 370 -59 28
-90 34 -110 22z m-467 -326 l34 -34 -3 -192 c-3 -210 -6 -220 -65 -231 -57
-10 -124 37 -173 122 -25 43 -41 142 -23 142 13 0 41 60 46 96 2 18 -2 46 -11
62 -14 28 -14 31 8 51 52 49 131 42 187 -16z m-127 -609 c37 -37 1 -103 -49
-90 -15 4 -30 17 -36 33 -20 53 45 98 85 57z"/>
<path d="M490 840 c0 -11 42 -30 66 -30 22 0 16 16 -11 28 -32 15 -55 15 -55
2z"/>
<path d="M490 723 c-42 -12 -45 -16 -18 -23 29 -9 68 -3 68 10 0 10 -31 18
-50 13z"/>
<path d="M523 588 c-29 -14 -30 -28 -2 -28 25 0 59 17 59 30 0 13 -29 12 -57
-2z"/>
<path d="M450 261 c-7 -15 -6 -24 6 -36 19 -18 33 -16 48 7 7 12 6 21 -3 32
-18 22 -38 20 -51 -3z"/>
<path d="M820 1204 c-64 -28 -115 -94 -122 -160 -3 -27 -1 -29 26 -26 82 9
152 79 160 160 4 48 -5 52 -64 26z"/>
<path d="M343 1184 c-37 -16 -46 -39 -11 -29 18 6 20 4 13 -11 -17 -44 -14
-47 35 -37 31 6 37 31 6 25 -19 -3 -20 2 -5 30 15 29 -1 38 -38 22z"/>
<path d="M456 1154 c-8 -20 -10 -17 34 -39 42 -21 104 -69 143 -110 l28 -30
-26 39 c-52 81 -130 156 -161 156 -7 0 -15 -7 -18 -16z"/>
<path d="M1350 267 c0 -107 2 -126 18 -140 22 -20 48 -22 55 -4 6 17 -7 40
-19 35 -5 -1 -11 49 -14 112 -4 99 -7 115 -22 118 -16 3 -18 -9 -18 -121z"/>
<path d="M725 360 c-4 -6 -7 -119 -6 -201 1 -38 5 -48 21 -52 19 -5 20 0 20
104 l0 109 80 0 c77 0 80 1 80 23 0 24 -2 24 -95 24 -53 0 -98 -3 -100 -7z"/>
<path d="M645 335 c2 -11 4 -32 4 -47 2 -46 27 -23 30 27 2 38 -1 44 -18 42
-15 -1 -19 -7 -16 -22z"/>
<path d="M993 302 c-41 -4 -54 -27 -55 -92 0 -85 17 -106 87 -101 63 4 58 38
-8 43 -20 1 -37 5 -38 8 -1 3 -1 19 -1 35 -1 68 -2 66 49 63 35 -2 49 -7 51
-20 3 -13 -6 -17 -40 -20 -35 -2 -44 -7 -46 -24 -2 -17 3 -21 40 -22 52 -3 76
12 84 53 11 58 -34 86 -123 77z"/>
<path d="M1197 302 c-40 -5 -56 -37 -54 -104 3 -78 24 -94 110 -89 27 2 22 41
-5 42 -66 3 -63 1 -63 54 l0 50 44 3 c28 2 47 -1 52 -9 12 -21 1 -29 -42 -29
-28 0 -39 -4 -39 -15 0 -8 -1 -18 -2 -22 -3 -14 76 -11 99 3 12 7 23 24 25 36
5 28 -18 78 -35 79 -6 0 -23 1 -37 2 -14 1 -37 1 -53 -1z"/>
<path d="M779 258 c-1 -2 -3 -12 -4 -24 -2 -19 3 -21 61 -20 60 0 64 1 64 23
0 21 -4 23 -60 23 -33 0 -61 -1 -61 -2z"/>
</g>
</svg>
